<svg width="23" height="18" viewBox="0 0 23 18" fill="none" xmlns="http://www.w3.org/2000/svg">
<path d="M15.1438 8.64321L10.0327 5.21465C9.96853 5.17158 9.89395 5.14685 9.81691 5.14309C9.73987 5.13933 9.66326 5.1567 9.59527 5.19333C9.52727 5.22996 9.47043 5.28448 9.43082 5.35107C9.39122 5.41766 9.37032 5.49383 9.37037 5.57144V12.4286C9.37028 12.5062 9.39113 12.5823 9.4307 12.6489C9.47027 12.7156 9.52707 12.7701 9.59505 12.8068C9.66308 12.8434 9.73973 12.8608 9.81681 12.857C9.8939 12.8533 9.96851 12.8285 10.0327 12.7853L15.1438 9.35679C15.2022 9.31766 15.2501 9.26462 15.2833 9.20238C15.3164 9.14013 15.3337 9.07061 15.3337 9C15.3337 8.92939 15.3164 8.85987 15.2833 8.79762C15.2501 8.73538 15.2022 8.68234 15.1438 8.64321ZM10.2222 11.6282V6.37179L14.1397 9L10.2222 11.6282ZM22.4101 2.84251C22.3268 2.51327 22.167 2.20866 21.9437 1.95381C21.7204 1.69896 21.4401 1.50119 21.1259 1.3768C17.5269 -0.0224783 11.7417 2.18429e-05 11.5 2.18429e-05C11.2583 2.18429e-05 5.47315 -0.0224783 1.87407 1.3768C1.56 1.50109 1.27978 1.6987 1.05651 1.95335C0.833235 2.208 0.673308 2.51239 0.589908 2.84144C0.319445 3.88608 0 5.80286 0 9C0 12.1971 0.319445 14.1139 0.589908 15.1586C0.673308 15.4876 0.833235 15.792 1.05651 16.0467C1.27978 16.3013 1.56 16.4989 1.87407 16.6232C5.47315 18.0225 11.2583 18 11.5 18H11.5756C12.3093 18 17.7068 17.9539 21.1291 16.6232C21.4432 16.4989 21.7234 16.3013 21.9467 16.0467C22.17 15.792 22.3299 15.4876 22.4133 15.1586C22.6806 14.1128 23 12.1971 23 9C23 5.80286 22.6806 3.88608 22.4101 2.84144V2.84251ZM21.5859 14.9496C21.5364 15.1471 21.441 15.33 21.3075 15.4831C21.1741 15.6362 21.0063 15.7552 20.8182 15.8303C17.3714 17.1632 11.5607 17.1428 11.5 17.1428C11.4393 17.1428 5.63181 17.1632 2.185 15.8239C1.99685 15.7488 1.82913 15.6298 1.69565 15.4767C1.56218 15.3235 1.46676 15.1407 1.41727 14.9432C1.15745 13.9468 0.851852 12.1071 0.851852 9C0.851852 5.89286 1.15745 4.05323 1.41407 3.0568C1.46357 2.85931 1.55898 2.67647 1.69246 2.52335C1.82594 2.37023 1.99366 2.25121 2.18181 2.17609C5.62861 0.836805 11.4393 0.857163 11.5 0.857163C11.5607 0.857163 17.3682 0.835734 20.815 2.17609C21.0031 2.25121 21.1709 2.37023 21.3043 2.52335C21.4378 2.67647 21.5332 2.85931 21.5827 3.0568C21.8425 4.05323 22.1481 5.89286 22.1481 9C22.1481 12.1071 21.8425 13.9468 21.5859 14.9432V14.9496Z" fill="white"/>
</svg>
