<svg width="21" height="21" viewBox="0 0 21 21" fill="none" xmlns="http://www.w3.org/2000/svg">
<path d="M10.5 0C8.4233 0 6.39323 0.615814 4.66652 1.76957C2.9398 2.92332 1.59399 4.5632 0.799269 6.48182C0.00454932 8.40045 -0.203385 10.5116 0.201759 12.5484C0.606904 14.5852 1.60693 16.4562 3.07538 17.9246C4.54383 19.3931 6.41475 20.3931 8.45155 20.7982C10.4884 21.2034 12.5996 20.9955 14.5182 20.2007C16.4368 19.406 18.0767 18.0602 19.2304 16.3335C20.3842 14.6068 21 12.5767 21 10.5C20.9969 7.71616 19.8897 5.04722 17.9212 3.07875C15.9528 1.11029 13.2838 0.00305718 10.5 0ZM10.92 20.1505V12.6H13.86C13.9714 12.6 14.0782 12.5557 14.157 12.477C14.2358 12.3982 14.28 12.2914 14.28 12.18C14.28 12.0686 14.2358 11.9618 14.157 11.883C14.0782 11.8042 13.9714 11.76 13.86 11.76H10.92V8.82C10.92 8.26304 11.1413 7.7289 11.5351 7.33507C11.9289 6.94125 12.463 6.72 13.02 6.72H14.7C14.8114 6.72 14.9182 6.67575 14.997 6.59698C15.0758 6.51822 15.12 6.41139 15.12 6.3C15.12 6.18861 15.0758 6.08178 14.997 6.00301C14.9182 5.92425 14.8114 5.88 14.7 5.88H13.02C12.2403 5.88 11.4925 6.18975 10.9411 6.7411C10.3898 7.29246 10.08 8.04026 10.08 8.82V11.76H7.14C7.02861 11.76 6.92178 11.8042 6.84302 11.883C6.76425 11.9618 6.72 12.0686 6.72 12.18C6.72 12.2914 6.76425 12.3982 6.84302 12.477C6.92178 12.5557 7.02861 12.6 7.14 12.6H10.08V20.1505C7.55678 20.0407 5.1769 18.9471 3.45022 17.1039C1.72353 15.2608 0.787371 12.8146 0.842288 10.2896C0.897206 7.76462 1.93883 5.36152 3.74402 3.59517C5.54922 1.82881 7.97439 0.839685 10.5 0.839685C13.0256 0.839685 15.4508 1.82881 17.256 3.59517C19.0612 5.36152 20.1028 7.76462 20.1577 10.2896C20.2126 12.8146 19.2765 15.2608 17.5498 17.1039C15.8231 18.9471 13.4432 20.0407 10.92 20.1505Z" fill="white"/>
</svg>
