<svg width="31" height="26" viewBox="0 0 31 26" fill="none" xmlns="http://www.w3.org/2000/svg">
<path d="M29.7912 6.77582L30.1447 8.37364C30.1983 8.61603 30.1983 8.85625 30.1533 9.08234C30.1747 9.16929 30.1858 9.25915 30.1865 9.3519C30.1865 9.64018 30.0736 9.91665 29.8727 10.1205C29.6718 10.3243 29.3993 10.4389 29.1151 10.4389H26.6991L25.1103 8.28995V8.28777C24.8563 7.94241 24.5261 7.66216 24.1462 7.46945C23.7663 7.27675 23.3472 7.17693 22.9225 7.17799H22.6868V5.34103C22.6868 4.55625 22.0568 3.91712 21.2833 3.91712H19.8047C19.0312 3.91712 18.4012 4.55625 18.4012 5.34103V7.16712H11.9729V5.34103C11.9729 4.55625 11.3429 3.91712 10.5693 3.91712H9.09083C8.31728 3.91712 7.6873 4.55625 7.6873 5.34103V7.17799H7.4516C6.58591 7.17799 5.77701 7.59212 5.25524 8.29755L3.67387 10.4389H1.25895C1.09561 10.4389 0.934411 10.401 0.787694 10.3282C0.640977 10.2553 0.512623 10.1494 0.412444 10.0185C0.312265 9.88762 0.242915 9.73521 0.209695 9.57296C0.176475 9.4107 0.180265 9.24288 0.220775 9.08234C0.172376 8.84833 0.175302 8.60638 0.229346 8.37364L0.572192 6.77582C0.954305 5.04077 1.90732 3.48942 3.27436 2.37713C4.6414 1.26484 6.34099 0.657915 8.09336 0.65625H22.2807C24.0323 0.656423 25.7313 1.26302 27.097 2.37575C28.4626 3.48848 29.4131 5.04072 29.7912 6.77582Z" fill="white"/>
<path d="M24.251 8.93893L28.1722 14.2433C29.4796 16.0078 30.1865 18.1554 30.1865 20.3628V23.9607C30.1865 24.8955 29.4365 25.6563 28.5151 25.6563H1.85887C0.937474 25.6563 0.1875 24.8955 0.1875 23.9607V20.3628C0.1875 18.1563 0.894618 16.0042 2.20172 14.2433L6.1123 8.9498C6.43371 8.51502 6.92655 8.26502 7.45153 8.26502H8.4265C8.60864 8.26502 8.75863 8.11285 8.75863 7.92806V5.34111C8.75863 5.15632 8.90863 5.00415 9.09076 5.00415H10.5693C10.7514 5.00415 10.9014 5.15632 10.9014 5.34111V7.92806C10.9014 8.11285 11.0514 8.26502 11.2335 8.26502H19.1404C19.3226 8.26502 19.4725 8.11285 19.4725 7.92806V5.34111C19.4725 5.15632 19.6225 5.00415 19.8047 5.00415H21.2832C21.4653 5.00415 21.6153 5.15632 21.6153 5.34111V7.92806C21.6153 8.11285 21.7653 8.26502 21.9475 8.26502H22.9224C23.4474 8.26502 23.9402 8.51502 24.251 8.93893ZM12.7206 13.6998C12.9028 13.6998 13.0538 13.5476 13.0431 13.3607V11.865C13.0428 11.7754 13.0077 11.6894 12.9453 11.6259C12.8829 11.5624 12.7983 11.5265 12.7099 11.5259H11.2357C11.1471 11.5262 11.0623 11.562 10.9996 11.6255C10.937 11.6891 10.9017 11.7752 10.9014 11.865V13.3607C10.9014 13.5465 11.0514 13.6998 11.2464 13.6998H12.7206ZM15.9348 13.6998C15.9783 13.7001 16.0214 13.6915 16.0615 13.6744C16.1016 13.6574 16.1379 13.6322 16.1682 13.6005C16.1984 13.5688 16.222 13.5312 16.2375 13.49C16.253 13.4488 16.2601 13.4048 16.2584 13.3607V11.865C16.2578 11.7753 16.2224 11.6893 16.1598 11.6258C16.0973 11.5624 16.0126 11.5265 15.9241 11.5259H14.4499C14.3613 11.5262 14.2764 11.562 14.2138 11.6255C14.1512 11.6891 14.1159 11.7752 14.1156 11.865V13.3607C14.1156 13.5465 14.2656 13.6998 14.4606 13.6998H15.9348ZM17.6748 13.6998H19.149C19.1925 13.7001 19.2356 13.6915 19.2757 13.6744C19.3158 13.6574 19.3521 13.6322 19.3823 13.6005C19.4126 13.5688 19.4362 13.5312 19.4517 13.49C19.4672 13.4488 19.4743 13.4048 19.4725 13.3607V11.865C19.472 11.7753 19.4366 11.6893 19.374 11.6258C19.3115 11.5624 19.2268 11.5265 19.1383 11.5259H17.664C17.5755 11.5262 17.4906 11.562 17.428 11.6255C17.3654 11.6891 17.33 11.7752 17.3298 11.865V13.3607C17.3298 13.5465 17.4798 13.6998 17.6748 13.6998ZM12.7206 16.9607C12.9028 16.9607 13.0538 16.8085 13.0431 16.6215V15.1259C13.0428 15.0362 13.0077 14.9503 12.9453 14.8868C12.8829 14.8233 12.7983 14.7873 12.7099 14.7868H11.2357C11.1471 14.787 11.0623 14.8229 10.9996 14.8864C10.937 14.9499 10.9017 15.036 10.9014 15.1259V16.6215C10.9014 16.8074 11.0514 16.9607 11.2464 16.9607H12.7206ZM14.4606 16.9607H15.9348C15.9783 16.961 16.0214 16.9524 16.0615 16.9353C16.1016 16.9182 16.1379 16.8931 16.1682 16.8614C16.1984 16.8297 16.222 16.7921 16.2375 16.7508C16.253 16.7096 16.2601 16.6656 16.2584 16.6215V15.1259C16.2578 15.0361 16.2224 14.9502 16.1598 14.8867C16.0973 14.8232 16.0126 14.7873 15.9241 14.7868H14.4499C14.3613 14.787 14.2764 14.8229 14.2138 14.8864C14.1512 14.9499 14.1159 15.036 14.1156 15.1259V16.6215C14.1156 16.8074 14.2656 16.9607 14.4606 16.9607ZM19.149 16.9607C19.1925 16.961 19.2356 16.9524 19.2757 16.9353C19.3158 16.9182 19.3521 16.8931 19.3823 16.8614C19.4126 16.8297 19.4362 16.7921 19.4517 16.7508C19.4672 16.7096 19.4743 16.6656 19.4725 16.6215V15.1259C19.472 15.0361 19.4366 14.9502 19.374 14.8867C19.3115 14.8232 19.2268 14.7873 19.1383 14.7868H17.664C17.5755 14.787 17.4906 14.8229 17.428 14.8864C17.3654 14.9499 17.33 15.036 17.3298 15.1259V16.6215C17.3298 16.8074 17.4798 16.9607 17.6748 16.9607H19.149ZM11.2464 20.2215H12.7206C12.9028 20.2215 13.0538 20.0694 13.0431 19.8824V18.3868C13.0428 18.2971 13.0077 18.2112 12.9453 18.1477C12.8829 18.0841 12.7983 18.0482 12.7099 18.0476H11.2357C11.1471 18.0479 11.0623 18.0837 10.9996 18.1473C10.937 18.2108 10.9017 18.2969 10.9014 18.3868V19.8824C10.9014 20.0683 11.0514 20.2215 11.2464 20.2215ZM15.9348 20.2215C15.9783 20.2219 16.0214 20.2132 16.0615 20.1962C16.1016 20.1791 16.1379 20.154 16.1682 20.1223C16.1984 20.0905 16.222 20.0529 16.2375 20.0117C16.253 19.9705 16.2601 19.9265 16.2584 19.8824V18.3868C16.2578 18.297 16.2224 18.2111 16.1598 18.1476C16.0973 18.0841 16.0126 18.0482 15.9241 18.0476H14.4499C14.3613 18.0479 14.2764 18.0837 14.2138 18.1473C14.1512 18.2108 14.1159 18.2969 14.1156 18.3868V19.8824C14.1156 20.0683 14.2656 20.2215 14.4606 20.2215H15.9348ZM17.6748 20.2215H19.149C19.1925 20.2219 19.2356 20.2132 19.2757 20.1962C19.3158 20.1791 19.3521 20.154 19.3823 20.1223C19.4126 20.0905 19.4362 20.0529 19.4517 20.0117C19.4672 19.9705 19.4743 19.9265 19.4725 19.8824V18.3868C19.472 18.297 19.4366 18.2111 19.374 18.1476C19.3115 18.0841 19.2268 18.0482 19.1383 18.0476H17.664C17.5755 18.0479 17.4906 18.0837 17.428 18.1473C17.3654 18.2108 17.33 18.2969 17.3298 18.3868V19.8824C17.3298 20.0683 17.4798 20.2215 17.6748 20.2215Z" fill="white"/>
</svg>
