<svg width="80" height="199" viewBox="0 0 80 199" fill="none" xmlns="http://www.w3.org/2000/svg">
<path d="M17.6949 197.49C17.7735 197.698 17.8646 197.863 17.9713 197.987C18.1545 198.203 18.3824 198.31 18.6549 198.31C18.8023 198.31 18.9293 198.264 19.0369 198.17C19.1445 198.077 19.1979 197.946 19.1979 197.779C19.1979 197.629 19.1436 197.498 19.035 197.386C18.9642 197.316 18.8158 197.21 18.5889 197.068L18.1943 196.822C18.075 196.746 17.981 196.671 17.9092 196.593C17.7783 196.447 17.7134 196.286 17.7134 196.11C17.7134 195.877 17.7909 195.683 17.9461 195.528C18.1022 195.372 18.3068 195.295 18.5637 195.295C18.6694 195.295 18.7964 195.321 18.9448 195.372C19.0931 195.424 19.1785 195.45 19.1988 195.45C19.2551 195.45 19.2958 195.436 19.3181 195.409C19.3394 195.382 19.3559 195.344 19.3685 195.294H19.4635L19.5663 196.279H19.4548C19.3792 195.982 19.259 195.775 19.0931 195.658C18.9264 195.54 18.7615 195.481 18.5986 195.481C18.4726 195.481 18.362 195.518 18.268 195.593C18.173 195.667 18.1264 195.771 18.1264 195.904C18.1264 196.023 18.1623 196.124 18.234 196.208C18.3058 196.294 18.4183 196.384 18.5715 196.477L18.9768 196.728C19.2308 196.884 19.4112 197.029 19.5149 197.159C19.6187 197.292 19.6701 197.448 19.6701 197.63C19.6701 197.872 19.5789 198.075 19.3957 198.237C19.2124 198.4 18.9787 198.481 18.6946 198.481C18.5521 198.481 18.4028 198.454 18.2467 198.4C18.0905 198.345 18.0013 198.318 17.9781 198.318C17.9247 198.318 17.8879 198.335 17.8695 198.368C17.851 198.401 17.8375 198.435 17.8326 198.473H17.7298L17.5921 197.488H17.6978L17.6949 197.49Z" fill="white"/>
<path d="M24.0655 195.359L24.0897 196.145H23.9792C23.9249 195.898 23.856 195.737 23.7717 195.662C23.6892 195.589 23.5128 195.551 23.2451 195.551H22.9882V197.919C22.9882 198.097 23.0153 198.208 23.0706 198.25C23.1259 198.293 23.248 198.321 23.4371 198.335V198.42H22.0884V198.335C22.2842 198.319 22.4054 198.287 22.4549 198.238C22.5024 198.188 22.5266 198.064 22.5266 197.864V195.551H22.2668C22.0108 195.551 21.8363 195.588 21.7432 195.661C21.6501 195.735 21.5803 195.896 21.5347 196.145H21.4212L21.4484 195.359H24.0655Z" fill="white"/>
<path d="M25.6421 198.421V198.336C25.7614 198.322 25.8496 198.277 25.9097 198.201C25.9698 198.125 26.0707 197.917 26.2161 197.576L27.179 195.306H27.272L28.4249 197.928C28.5015 198.102 28.5636 198.21 28.6092 198.25C28.6548 198.292 28.7323 198.319 28.8399 198.335V198.42H27.6628V198.335C27.7976 198.323 27.8849 198.307 27.9246 198.29C27.9634 198.274 27.9838 198.231 27.9838 198.163C27.9838 198.141 27.976 198.101 27.9605 198.044C27.945 197.987 27.9246 197.926 27.8975 197.863L27.7123 197.418H26.4934C26.3732 197.721 26.3014 197.906 26.2782 197.972C26.2539 198.039 26.2433 198.091 26.2433 198.13C26.2433 198.208 26.2753 198.262 26.3383 198.292C26.3761 198.31 26.4508 198.324 26.5584 198.333V198.418H25.6421V198.421ZM27.6347 197.232L27.1033 195.958L26.571 197.232H27.6347Z" fill="white"/>
<path d="M30.3545 198.335C30.532 198.318 30.6425 198.283 30.6861 198.231C30.7298 198.178 30.7511 198.056 30.7511 197.864V195.86C30.7511 195.697 30.7269 195.591 30.6784 195.54C30.6289 195.49 30.5213 195.458 30.3545 195.444V195.358H31.6344C31.9021 195.358 32.1231 195.392 32.3006 195.46C32.639 195.588 32.8067 195.823 32.8067 196.166C32.8067 196.395 32.733 196.573 32.5818 196.696C32.4325 196.82 32.2288 196.901 31.9709 196.939L32.9241 198.114C32.9832 198.185 33.0414 198.238 33.1005 198.271C33.1587 198.304 33.2344 198.324 33.3265 198.334V198.419H32.5818L31.4231 196.994L31.2204 197.004V197.917C31.2204 198.088 31.2466 198.196 31.299 198.242C31.3503 198.287 31.4638 198.318 31.6383 198.333V198.418H30.3536V198.333L30.3545 198.335ZM31.936 196.731C32.1813 196.63 32.3035 196.441 32.3035 196.163C32.3035 195.884 32.1949 195.712 31.9738 195.615C31.8565 195.563 31.7004 195.535 31.5055 195.535C31.3746 195.535 31.2941 195.545 31.266 195.564C31.2369 195.582 31.2214 195.627 31.2214 195.695V196.835C31.554 196.822 31.7925 196.788 31.936 196.731Z" fill="white"/>
<path d="M37.396 198.335C37.5851 198.321 37.7073 198.293 37.7626 198.25C37.8178 198.208 37.8469 198.097 37.8469 197.919V195.861C37.8469 195.691 37.8188 195.581 37.7626 195.532C37.7063 195.484 37.5851 195.455 37.396 195.446V195.36H38.7661V195.446C38.5771 195.455 38.4549 195.484 38.3996 195.532C38.3443 195.581 38.3153 195.691 38.3153 195.861V197.919C38.3153 198.097 38.3434 198.208 38.3996 198.25C38.4559 198.293 38.5771 198.321 38.7661 198.335V198.42H37.396V198.335Z" fill="white"/>
<path d="M40.5493 197.49C40.6278 197.698 40.719 197.863 40.8257 197.987C41.0089 198.203 41.2368 198.31 41.5092 198.31C41.6566 198.31 41.7836 198.264 41.8913 198.17C41.9989 198.077 42.0522 197.946 42.0522 197.779C42.0522 197.629 41.9979 197.498 41.8893 197.386C41.8186 197.316 41.6702 197.21 41.4433 197.068L41.0487 196.822C40.9294 196.746 40.8353 196.671 40.7636 196.593C40.6327 196.447 40.5677 196.286 40.5677 196.11C40.5677 195.877 40.6453 195.683 40.8004 195.528C40.9565 195.372 41.1611 195.295 41.4181 195.295C41.5238 195.295 41.6508 195.321 41.7992 195.372C41.9475 195.424 42.0329 195.45 42.0532 195.45C42.1095 195.45 42.1502 195.436 42.1725 195.409C42.1938 195.382 42.2103 195.344 42.2229 195.294H42.3179L42.4207 196.279H42.3092C42.2336 195.982 42.1133 195.775 41.9475 195.658C41.7807 195.54 41.6159 195.481 41.453 195.481C41.327 195.481 41.2164 195.518 41.1224 195.593C41.0273 195.667 40.9808 195.771 40.9808 195.904C40.9808 196.023 41.0167 196.124 41.0884 196.208C41.1602 196.294 41.2727 196.384 41.4259 196.477L41.8312 196.728C42.0852 196.884 42.2656 197.029 42.3693 197.159C42.4731 197.292 42.5245 197.448 42.5245 197.63C42.5245 197.872 42.4333 198.075 42.25 198.237C42.0668 198.4 41.8331 198.481 41.549 198.481C41.4065 198.481 41.2571 198.454 41.101 198.4C40.9449 198.345 40.8557 198.318 40.8324 198.318C40.7791 198.318 40.7423 198.335 40.7238 198.368C40.7054 198.401 40.6918 198.435 40.687 198.473H40.5842L40.4465 197.488H40.5522L40.5493 197.49Z" fill="white"/>
<path d="M44.264 198.335C44.4337 198.316 44.5442 198.286 44.5946 198.243C44.6451 198.201 44.6712 198.092 44.6712 197.919V195.861C44.6712 195.697 44.646 195.59 44.5956 195.539C44.5462 195.489 44.4356 195.458 44.264 195.445V195.359H45.5691V195.445C45.3994 195.454 45.284 195.482 45.2268 195.529C45.1696 195.575 45.1396 195.675 45.1396 195.829V198.052C45.1396 198.104 45.1483 198.144 45.1657 198.173C45.1832 198.202 45.221 198.22 45.2802 198.228C45.3151 198.232 45.351 198.236 45.3907 198.237C45.4285 198.239 45.5012 198.24 45.6069 198.24C46.0181 198.24 46.2963 198.206 46.4408 198.138C46.5853 198.07 46.7259 197.896 46.8617 197.618H46.979L46.7521 198.42H44.263V198.335H44.264Z" fill="white"/>
<path d="M48.4945 198.421V198.336C48.6138 198.322 48.702 198.277 48.7621 198.201C48.8223 198.125 48.9231 197.917 49.0685 197.576L50.0314 195.306H50.1245L51.2774 197.928C51.354 198.102 51.416 198.21 51.4616 198.25C51.5072 198.292 51.5848 198.319 51.6924 198.335V198.42H50.5152V198.335C50.65 198.323 50.7373 198.307 50.777 198.29C50.8158 198.274 50.8362 198.231 50.8362 198.163C50.8362 198.141 50.8284 198.101 50.8129 198.044C50.7974 197.987 50.777 197.926 50.7499 197.863L50.5647 197.418H49.3459C49.2256 197.721 49.1539 197.906 49.1306 197.972C49.1064 198.039 49.0957 198.091 49.0957 198.13C49.0957 198.208 49.1277 198.262 49.1907 198.292C49.2285 198.31 49.3032 198.324 49.4108 198.333V198.418H48.4945V198.421ZM50.4871 197.232L49.9558 195.958L49.4234 197.232H50.4871Z" fill="white"/>
<path d="M53.2079 198.335C53.3989 198.315 53.5221 198.272 53.5754 198.205C53.6297 198.138 53.6569 197.983 53.6569 197.738V195.699L53.5938 195.626C53.526 195.546 53.4688 195.497 53.4203 195.478C53.3737 195.459 53.303 195.448 53.2079 195.445V195.359H53.9972L55.7823 197.573V196.035C55.7823 195.782 55.7455 195.618 55.6698 195.541C55.6194 195.492 55.5099 195.46 55.3392 195.444V195.358H56.4262V195.444C56.2497 195.463 56.1314 195.504 56.0732 195.573C56.015 195.641 55.9859 195.796 55.9859 196.039V198.474H55.9064L53.8595 195.938V197.739C53.8595 197.991 53.8964 198.157 53.971 198.234C54.0185 198.283 54.1272 198.317 54.2939 198.336V198.421H53.2079V198.335Z" fill="white"/>
<path d="M57.9601 198.335C58.1288 198.316 58.2394 198.286 58.2908 198.243C58.3422 198.201 58.3674 198.092 58.3674 197.919V195.861C58.3674 195.692 58.3422 195.584 58.2937 195.535C58.2433 195.488 58.1337 195.458 57.9611 195.445V195.359H59.209C59.6289 195.359 59.9847 195.428 60.2756 195.566C60.7992 195.815 61.062 196.26 61.062 196.9C61.062 197.129 61.0145 197.349 60.9204 197.557C60.8264 197.765 60.6848 197.94 60.4948 198.083C60.3736 198.174 60.2485 198.242 60.1195 198.289C59.8829 198.376 59.592 198.42 59.2468 198.42H57.9611V198.335H57.9601ZM58.8929 198.212C58.9298 198.237 59.0064 198.248 59.1218 198.248C59.4834 198.248 59.7801 198.177 60.0138 198.033C60.3726 197.813 60.552 197.437 60.552 196.904C60.552 196.429 60.4046 196.073 60.1088 195.833C59.8558 195.628 59.5212 195.526 59.1043 195.526C58.9996 195.526 58.9298 195.537 58.8929 195.56C58.8561 195.582 58.8377 195.632 58.8377 195.709V198.062C58.8377 198.138 58.8561 198.187 58.8929 198.211V198.212Z" fill="white"/>
<path d="M0.0358766 185.044H3.54888L3.58281 186.1H3.43349C3.36174 185.769 3.26865 185.552 3.15617 185.453C3.04369 185.353 2.80807 185.302 2.44737 185.302H2.10121V188.482C2.10121 188.721 2.13902 188.869 2.21368 188.927C2.28932 188.984 2.45222 189.022 2.70529 189.04V189.155H0.894007V189.04C1.15678 189.02 1.32162 188.976 1.38561 188.91C1.44961 188.843 1.48258 188.676 1.48258 188.409V185.302H1.13351C0.790255 185.302 0.555603 185.352 0.431489 185.452C0.307375 185.551 0.21332 185.767 0.151264 186.1H0L0.0358766 185.044Z" fill="white"/>
<path d="M7.26453 189.154V189.039C7.42355 189.021 7.54379 188.961 7.62427 188.859C7.70378 188.757 7.8405 188.477 8.03442 188.02L9.32889 184.972H9.45203L11.0005 188.493C11.1033 188.727 11.1857 188.871 11.2468 188.927C11.3089 188.982 11.4126 189.02 11.5581 189.04V189.155H9.97855V189.04C10.1599 189.024 10.2772 189.004 10.3296 188.981C10.3819 188.958 10.4081 188.9 10.4081 188.81C10.4081 188.78 10.3984 188.727 10.378 188.65C10.3586 188.574 10.3305 188.494 10.2927 188.409L10.0445 187.812H8.40773C8.24677 188.218 8.15078 188.466 8.11878 188.555C8.08678 188.644 8.07224 188.715 8.07224 188.768C8.07224 188.872 8.1149 188.945 8.20023 188.985C8.25259 189.009 8.35052 189.027 8.49694 189.039V189.154H7.26453ZM9.93976 187.559L9.22805 185.849L8.51342 187.559H9.93976Z" fill="white"/>
<path d="M15.1923 189.039C15.4483 189.012 15.6141 188.955 15.6868 188.865C15.7595 188.774 15.7954 188.566 15.7954 188.238V185.501L15.711 185.401C15.6199 185.295 15.5423 185.229 15.4783 185.202C15.4143 185.177 15.3193 185.163 15.1913 185.159V185.043H16.2511L18.6491 188.016V185.952C18.6491 185.613 18.5977 185.391 18.4978 185.289C18.4309 185.223 18.2825 185.18 18.0547 185.16V185.044H19.513V185.16C19.2774 185.184 19.1193 185.241 19.0408 185.332C18.9613 185.423 18.9215 185.632 18.9215 185.957V189.227H18.8158L16.0679 185.82V188.238C16.0679 188.578 16.1173 188.8 16.2162 188.902C16.2802 188.969 16.4257 189.014 16.6506 189.039V189.154H15.1913V189.039H15.1923Z" fill="white"/>
<path d="M23.1424 189.039C23.3702 189.015 23.5186 188.974 23.5865 188.917C23.6553 188.859 23.6892 188.714 23.6892 188.481V185.717C23.6892 185.497 23.6553 185.353 23.5894 185.286C23.5225 185.218 23.3731 185.175 23.1433 185.16V185.044H26.444L26.4653 185.933H26.3073C26.2549 185.66 26.1754 185.483 26.0707 185.402C25.9659 185.322 25.7313 185.281 25.3677 185.281H24.5212C24.431 185.281 24.3738 185.295 24.3525 185.326C24.3321 185.355 24.3205 185.41 24.3205 185.49V186.877H25.2794C25.5442 186.877 25.7138 186.838 25.7866 186.76C25.8583 186.682 25.9175 186.522 25.9621 186.283H26.1075V187.718H25.9621C25.9155 187.477 25.8564 187.318 25.7837 187.24C25.7109 187.161 25.5422 187.123 25.2794 187.123H24.3205V188.661C24.3205 188.785 24.3593 188.857 24.4368 188.88C24.5154 188.902 24.749 188.913 25.1369 188.913C25.5587 188.913 25.8699 188.867 26.0707 188.775C26.2704 188.683 26.4517 188.46 26.6108 188.106H26.7843L26.5022 189.156H23.1443V189.041L23.1424 189.039Z" fill="white"/>
<path d="M33.3391 185.071C33.5718 185.138 33.7056 185.171 33.7395 185.171C33.8287 185.171 33.8918 185.155 33.9296 185.12C33.9664 185.086 33.9994 185.037 34.0256 184.972H34.1623L34.2098 186.279H34.0682C33.9402 185.978 33.8084 185.753 33.6736 185.605C33.4292 185.346 33.1112 185.217 32.7185 185.217C32.3258 185.217 31.969 185.368 31.6674 185.671C31.3649 185.973 31.2136 186.472 31.2136 187.165C31.2136 187.737 31.3649 188.184 31.6664 188.506C31.967 188.827 32.3394 188.988 32.7825 188.988C32.8581 188.988 32.9464 188.981 33.0462 188.966C33.1481 188.952 33.2441 188.93 33.3352 188.899C33.4826 188.851 33.5737 188.809 33.6115 188.774C33.6474 188.739 33.6658 188.687 33.6658 188.618V187.628C33.6658 187.389 33.6319 187.239 33.564 187.18C33.4952 187.121 33.3478 187.084 33.119 187.07V186.954H34.7024V187.07C34.5482 187.081 34.4464 187.106 34.396 187.145C34.3107 187.21 34.268 187.344 34.268 187.546V188.769C34.268 188.841 34.0905 188.938 33.7327 189.059C33.3759 189.181 33.0327 189.241 32.703 189.241C32.097 189.241 31.585 189.064 31.1681 188.71C30.7084 188.32 30.4786 187.796 30.4786 187.139C30.4786 186.561 30.6619 186.065 31.0284 185.652C31.4308 185.197 31.9641 184.97 32.6293 184.97C32.8707 184.97 33.1073 185.003 33.3391 185.07V185.071Z" fill="white"/>
<path d="M38.3715 189.154V189.039C38.5305 189.021 38.6508 188.961 38.7312 188.859C38.8107 188.757 38.9475 188.477 39.1414 188.02L40.4359 184.972H40.559L42.1075 188.493C42.2103 188.727 42.2927 188.871 42.3538 188.927C42.4159 188.982 42.5196 189.02 42.6651 189.04V189.155H41.0855V189.04C41.2668 189.024 41.3842 189.004 41.4365 188.981C41.4889 188.958 41.5151 188.9 41.5151 188.81C41.5151 188.78 41.5054 188.727 41.485 188.65C41.4656 188.574 41.4375 188.494 41.3997 188.409L41.1514 187.812H39.5147C39.3537 188.218 39.2577 188.466 39.2257 188.555C39.1937 188.644 39.1792 188.715 39.1792 188.768C39.1792 188.872 39.2219 188.945 39.3072 188.985C39.3596 189.009 39.4575 189.027 39.6039 189.039V189.154H38.3715ZM41.0467 187.559L40.335 185.849L39.6204 187.559H41.0467Z" fill="white"/>
<path d="M46.6299 187.905C46.7346 188.184 46.8578 188.406 46.9993 188.572C47.2456 188.861 47.5511 189.005 47.9166 189.005C48.1154 189.005 48.286 188.943 48.4305 188.818C48.576 188.693 48.6477 188.517 48.6477 188.293C48.6477 188.09 48.575 187.914 48.4296 187.765C48.3345 187.67 48.1348 187.528 47.8293 187.337L47.299 187.007C47.1399 186.905 47.0129 186.803 46.9169 186.7C46.7414 186.505 46.6532 186.287 46.6532 186.051C46.6532 185.738 46.7579 185.477 46.9664 185.268C47.1748 185.06 47.4502 184.956 47.7944 184.956C47.936 184.956 48.1067 184.991 48.3064 185.061C48.5052 185.131 48.6196 185.166 48.6477 185.166C48.7243 185.166 48.7777 185.147 48.8067 185.111C48.8358 185.075 48.8591 185.023 48.8746 184.956H49.0026L49.1393 186.279H48.991C48.8892 185.88 48.7282 185.603 48.5042 185.445C48.2802 185.287 48.0592 185.208 47.841 185.208C47.6713 185.208 47.5229 185.259 47.3959 185.359C47.2708 185.458 47.2068 185.598 47.2068 185.775C47.2068 185.935 47.2544 186.071 47.3523 186.185C47.4493 186.3 47.5995 186.42 47.8041 186.545L48.3491 186.882C48.6904 187.092 48.9318 187.285 49.0715 187.462C49.2101 187.639 49.279 187.849 49.279 188.093C49.279 188.419 49.1568 188.69 48.9105 188.908C48.6652 189.127 48.351 189.236 47.969 189.236C47.777 189.236 47.5763 189.199 47.3668 189.127C47.1574 189.055 47.0372 189.019 47.0071 189.019C46.9344 189.019 46.8849 189.041 46.8597 189.086C46.8345 189.13 46.818 189.178 46.8093 189.228H46.6726L46.4874 187.906H46.6299V187.905Z" fill="white"/>
<path d="M53.2477 189.039C53.4901 189.013 53.6414 188.968 53.7024 188.904C53.7635 188.841 53.7926 188.675 53.7926 188.408V185.717C53.7926 185.495 53.7587 185.351 53.6908 185.284C53.6229 185.217 53.4746 185.175 53.2467 185.16V185.044H54.9698V185.16C54.7419 185.175 54.5945 185.217 54.5257 185.284C54.4568 185.351 54.4229 185.495 54.4229 185.717V186.927H56.3098V185.717C56.3098 185.495 56.2759 185.351 56.2099 185.284C56.143 185.217 55.9947 185.175 55.7639 185.16V185.044H57.4869V185.16C57.2591 185.175 57.1107 185.217 57.0428 185.284C56.975 185.351 56.941 185.495 56.941 185.717V188.481C56.941 188.706 56.975 188.85 57.0428 188.914C57.1107 188.977 57.2591 189.02 57.4869 189.039V189.154H55.7639V189.039C56.0092 189.015 56.1605 188.97 56.2206 188.906C56.2807 188.842 56.3098 188.675 56.3098 188.409V187.202H54.4229V188.482C54.4229 188.707 54.4568 188.852 54.5257 188.916C54.5945 188.98 54.7419 189.022 54.9698 189.04V189.155H53.2467V189.04L53.2477 189.039Z" fill="white"/>
<path d="M61.1968 189.039C61.4499 189.021 61.6137 188.983 61.6874 188.926C61.763 188.868 61.7999 188.72 61.7999 188.481V185.717C61.7999 185.488 61.763 185.342 61.6874 185.276C61.6137 185.21 61.4499 185.171 61.1968 185.16V185.044H63.0342V185.16C62.7821 185.171 62.6173 185.21 62.5436 185.276C62.468 185.341 62.4311 185.488 62.4311 185.717V188.481C62.4311 188.72 62.468 188.868 62.5436 188.926C62.6173 188.983 62.7821 189.021 63.0342 189.039V189.154H61.1968V189.039Z" fill="white"/>
<path d="M66.6985 189.039C66.9545 189.012 67.1203 188.955 67.193 188.865C67.2657 188.774 67.3016 188.566 67.3016 188.238V185.717C67.3016 185.492 67.2667 185.347 67.1959 185.279C67.1251 185.211 66.9652 185.171 66.714 185.16V185.044H67.9387L69.365 188.139L70.7564 185.044H71.9918V185.16C71.761 185.175 71.6126 185.218 71.5457 185.285C71.4779 185.353 71.4459 185.497 71.4459 185.717V188.478C71.4459 188.704 71.4788 188.849 71.5457 188.913C71.6126 188.977 71.761 189.019 71.9918 189.039V189.154H70.2532V189.039C70.5043 189.019 70.6605 188.974 70.7225 188.904C70.7836 188.835 70.8137 188.669 70.8137 188.406V185.617L69.2225 189.154H69.1381L67.5741 185.763V188.239C67.5741 188.579 67.6235 188.8 67.7224 188.902C67.7864 188.969 67.9319 189.015 68.1568 189.039V189.154H66.6975V189.039H66.6985Z" fill="white"/>
<path d="M75.7064 189.154V189.039C75.8655 189.021 75.9857 188.961 76.0662 188.859C76.1457 188.757 76.2824 188.477 76.4763 188.02L77.7708 184.972H77.894L79.4425 188.493C79.5452 188.727 79.6277 188.871 79.6888 188.927C79.7508 188.982 79.8546 189.02 80 189.04V189.155H78.4205V189.04C78.6018 189.024 78.7191 189.004 78.7715 188.981C78.8238 188.958 78.85 188.9 78.85 188.81C78.85 188.78 78.8403 188.727 78.82 188.65C78.8006 188.574 78.7724 188.494 78.7346 188.409L78.4864 187.812H76.8497C76.6887 188.218 76.5927 188.466 76.5607 188.555C76.5287 188.644 76.5142 188.715 76.5142 188.768C76.5142 188.872 76.5568 188.945 76.6421 188.985C76.6945 189.009 76.7924 189.027 76.9389 189.039V189.154H75.7064ZM78.3817 187.559L77.67 185.849L76.9553 187.559H78.3817Z" fill="white"/>
<path d="M44.7158 9.21503C44.7158 9.21503 45.319 9.6882 45.6981 10.0431C45.6622 10.173 45.5439 10.2321 45.3781 10.2321H35.0272L34.9206 9.8889H40.0907V8.10291H36.6834L36.5883 7.74804H40.0897V6.23353H37.5347C36.9665 6.95491 36.3285 7.54636 35.6778 7.94874L35.5237 7.79458C36.3517 7.06156 37.239 5.80691 37.7713 4.41166L38.7768 4.87319C38.7177 4.97984 38.5751 5.07389 38.3153 5.02735C38.1611 5.32308 37.9836 5.60717 37.7946 5.87866H40.0897V4.44753L41.166 4.56582C41.1301 4.73163 41.0118 4.84992 40.7277 4.89743V5.87963H43.4253L43.9459 5.24066C43.9459 5.24066 44.5141 5.70219 44.8807 6.04543C44.8448 6.17535 44.7381 6.2345 44.5607 6.2345H40.7277V7.74901H43.1411L43.6376 7.12168C43.6376 7.12168 44.2174 7.55897 44.5723 7.91384C44.5374 8.04376 44.4191 8.10291 44.265 8.10291H40.7277V9.8889H44.1699L44.7139 9.21503H44.7158ZM37.5473 4.48341C37.5473 4.54255 37.2865 4.69575 37.015 4.69575H36.9083V0.0940508L37.6181 0.437288H43.0946L43.4854 0L44.361 0.686473C44.2776 0.781494 44.0885 0.863909 43.8635 0.91142V4.36609C43.8519 4.43687 43.5086 4.6143 43.2953 4.6143H43.2119V4.10527H37.5454V4.48341H37.5473ZM37.5473 0.792159V2.07009H43.2139V0.792159H37.5473ZM43.2129 3.75039V2.42496H37.5463V3.75039H43.2129Z" fill="white"/>
<path d="M39.889 23.4788C42.7164 23.0056 44.1244 21.5861 44.1244 19.4569C44.1244 17.3276 42.5749 16.0972 40.6463 16.0972C40.5163 16.0972 40.3738 16.1089 40.2322 16.1205C40.4921 16.487 40.6938 16.8777 40.6938 17.315C40.6938 17.859 40.5638 18.4863 40.3273 19.1485C39.8657 20.5205 38.5053 22.7923 37.3582 22.7923C36.6009 22.7923 35.8087 21.6094 35.8087 20.1782C35.8087 18.9953 36.377 17.8241 37.3233 16.9728C38.2813 16.1089 39.4759 15.7307 40.6831 15.7307C43.0132 15.7307 44.8467 17.2326 44.8467 19.6227C44.8467 21.5037 43.6997 23.4914 39.9375 23.7628L39.89 23.4788H39.889ZM39.8298 16.1806C39.0018 16.3464 38.2212 16.7362 37.6181 17.316C36.8608 18.049 36.3993 19.0079 36.3993 20.0367C36.3993 21.1847 36.9199 22.0244 37.3931 22.0244C38.1863 22.0244 39.2626 20.155 39.759 18.9963C39.9598 18.464 40.1498 17.7775 40.1498 17.2695C40.1498 16.8438 40.0199 16.5364 39.8308 16.1806H39.8298Z" fill="white"/>
<path d="M37.4164 33.9698V34.9869H44.3251L44.7042 34.5729L45.4964 35.2351C45.4256 35.3185 45.2714 35.365 45.0349 35.3893C44.9049 37.1277 44.5733 38.2166 44.1001 38.5715C43.8276 38.7964 43.4379 38.9031 43.0471 38.9031C43.0471 38.7256 42.9996 38.5366 42.858 38.4299C42.7155 38.3475 42.3373 38.2525 41.9592 38.205L41.9708 37.9926C42.3732 38.0159 43.083 38.0876 43.3079 38.0876C43.5203 38.0876 43.6269 38.0634 43.7336 37.9694C44.0061 37.7444 44.2776 36.7981 44.4075 35.3311H39.344C39.3091 35.4261 39.2141 35.4969 39.0367 35.5202V37.3895H41.2843V35.6035L42.2423 35.7102C42.219 35.8401 42.124 35.9235 41.899 35.97V37.8743C41.899 37.9568 41.6266 38.0993 41.4026 38.0993H41.2843V37.7328H36.2092V38.395C36.2092 38.4774 35.9367 38.6316 35.7118 38.6316H35.5935V35.556L36.5515 35.6743C36.5272 35.8042 36.4332 35.8876 36.2082 35.9225V37.3895H38.4083V35.3311H37.4145V35.4969C37.4145 35.5677 37.1662 35.7335 36.8938 35.7335H36.7755V29.0384L37.4736 29.37H39.3896C39.5195 28.9919 39.7212 28.447 39.8279 28.0921L40.8693 28.3403C40.8101 28.4945 40.6676 28.5769 40.431 28.5652C40.2652 28.8135 40.0286 29.1092 39.8279 29.37H42.4304L42.8212 28.956L43.6967 29.6182C43.6143 29.7132 43.4243 29.8073 43.2003 29.8548V32.8121C43.1887 32.8945 42.857 33.0603 42.6437 33.0603H42.5497V32.5755H37.4154V33.6168H44.2174L44.774 32.943C44.774 32.943 45.3888 33.4161 45.7679 33.7826C45.732 33.9126 45.638 33.9717 45.4605 33.9717H37.4164V33.9698ZM37.4164 29.7229V30.7876H42.5506V29.7229H37.4164ZM42.5506 32.2303V31.1182H37.4164V32.2303H42.5506Z" fill="white"/>
<path d="M42.7407 42.3781C44.0895 42.8396 44.7992 43.4311 45.1774 43.975C45.3781 44.2824 45.4615 44.4957 45.4615 44.7556C45.4615 45.0745 45.284 45.2403 45.0475 45.2403C44.8109 45.2403 44.6683 45.0988 44.5151 44.7439C44.137 43.9634 43.6279 43.2769 42.5991 42.5672L42.7417 42.3781H42.7407Z" fill="white"/>
<path d="M53.9769 153.561C54.7787 153.561 55.4274 152.95 55.4274 152.148C55.4274 151.346 54.8166 150.735 54.0525 150.735C53.2884 150.735 52.6785 151.308 52.6397 152.034H31.0662V149.399H47.5995C48.2104 150.583 50.0818 150.201 50.0818 148.826V139.433C50.0818 138.134 48.4014 137.638 47.7149 138.669H38.8854C39.3673 136.912 41.1408 131.743 45.3471 131.743C45.3471 131.743 40.4989 130.133 35.3695 138.669H30.9518C30.4554 137.333 28.4317 137.676 28.4317 139.126V157.721C28.4317 159.248 30.6464 159.477 31.0284 158.027H34.1216V163.143H27.8209V159.859C27.8209 159.095 27.21 158.523 26.4459 158.523C25.6818 158.523 25.071 159.096 25.071 159.859V167.114C25.071 167.878 25.6818 168.489 26.4459 168.489C27.21 168.489 27.8209 167.878 27.8209 167.114V164.67H43.2468C43.4757 166.236 45.8047 166.045 45.8047 164.479V159.783C45.8047 159.057 45.2317 158.484 44.5064 158.484C43.7811 158.484 43.2081 159.057 43.2081 159.783V163.143H36.6785V158.027H52.2955C51.799 163.296 51.1882 165.587 49.8132 166.542L46.1092 166.006C45.765 165.969 45.4605 166.197 45.4217 166.542C45.3839 166.885 45.6128 167.19 45.956 167.229L46.9867 167.381C46.1848 168.717 47.1011 169.978 48.5139 169.787C53.6685 169.138 54.3948 164.708 55.0435 157.53C55.1579 156.232 53.5919 155.582 52.7144 156.499H31.0643V153.56H53.9749L53.9769 153.561ZM31.0662 140.235H47.4473V143.365H31.0662V140.235ZM31.0662 144.893H47.4473V147.872H31.0662V144.893Z" fill="white"/>
<path d="M36.4128 59.8677C35.9542 59.8677 35.6109 60.2497 35.6109 60.7073C35.6109 61.165 35.9542 61.5092 36.4128 61.5092H44.6994V64.64H40.1168C39.3916 63.685 37.8634 64.1814 37.8634 65.4041V76.3634C37.8634 77.0508 38.4365 77.6617 39.1239 77.6617C39.8114 77.6617 40.3457 77.1274 40.3835 76.4778H44.6984V80.0672H36.9083C36.4497 80.0672 36.1064 80.4105 36.1064 80.8691C36.1064 81.3277 36.4497 81.671 36.9083 81.671H44.6984V85.0316H34.6558C34.1972 85.0316 33.854 85.4136 33.854 85.8712C33.854 86.3289 34.1972 86.6731 34.6558 86.6731H56.0402C56.8421 86.6731 57.5674 86.0623 57.5674 85.1838C57.5674 84.3819 56.9187 83.7323 56.1168 83.7323C55.315 83.7323 54.7041 84.3053 54.6275 85.0684H47.1428V81.67H53.5202C54.2842 81.67 54.8951 81.0213 54.8951 80.2573C54.8951 79.4932 54.2842 78.8824 53.5202 78.8824C52.8327 78.8824 52.2218 79.4166 52.1074 80.1041H47.105V76.4768H51.993C52.7561 77.3931 54.2842 76.8589 54.2842 75.6372V65.4041C54.2842 64.1436 52.6804 63.6471 51.9552 64.64H47.106V61.5092H55.2393C56.1178 61.5092 56.7665 60.8605 56.7665 60.0199C56.7665 59.1793 56.1178 58.5306 55.3149 58.5306C54.5121 58.5306 53.9022 59.1414 53.8256 59.9055H47.1428V56.4692C48.1358 56.316 50.1982 55.9728 51.0379 55.8206C51.6109 55.7062 52.1452 55.0953 52.1074 54.2935C52.0696 52.6897 49.9693 52.1933 49.1675 53.5294C46.6474 54.2547 41.3396 55.6674 38.4752 56.3936C37.7112 56.5846 37.941 57.6919 38.6663 57.6153C40.27 57.4621 43.2866 57.081 44.6994 56.89V59.8686H36.4128V59.8677ZM44.6994 74.9895H40.3466V71.1324H44.6994V74.9895ZM44.6994 69.6819H40.3466V66.1303H44.6994V69.6819ZM47.105 66.1303H51.7254V69.6819H47.105V66.1303ZM47.105 71.1324H51.7254V74.9895H47.105V71.1324Z" fill="white"/>
<path d="M29.0814 70.7504V86.7875C29.0814 87.4749 29.6544 88.048 30.3419 88.048C31.0294 88.048 31.6025 87.4749 31.6025 86.7875V68.4205C32.1755 69.1457 33.0918 70.3296 33.5883 71.0936C33.5883 72.0099 34.1613 72.6595 35.1154 72.5829C36.2606 72.5063 36.6426 71.2846 36.2228 70.4828C35.4975 69.1467 33.7793 67.7718 32.0989 67.1222C31.9457 67.0456 31.7557 67.0456 31.6025 67.1222V64.9454H34.4668C35.1921 64.9454 35.8795 64.4112 35.8795 63.5705C35.8795 62.8065 35.2687 62.1578 34.5046 62.1578C33.8171 62.1578 33.2062 62.6921 33.0918 63.3795H31.6025V57.0025L34.8478 56.3151C35.4965 56.1619 35.8786 55.3988 35.8407 54.7492C35.8029 53.8707 35.0767 53.2221 34.1991 53.2599C33.5883 53.2977 33.054 53.6797 32.8242 54.2149C30.6474 55.0168 26.2947 56.4683 24.1556 57.1547C23.315 57.4223 23.5448 58.4908 24.4233 58.3386L29.0824 57.4989V63.3408H23.3547C22.8961 63.3408 22.5528 63.684 22.5528 64.1426C22.5528 64.6012 22.8961 64.9445 23.3547 64.9445H28.2524C21.0479 69.5772 21.5008 76.0929 21.5008 76.0929C23.376 69.3959 27.3409 68.2362 28.9941 68.0501L29.0833 70.7485L29.0814 70.7504Z" fill="white"/>
<path d="M48.5372 129.93C47.5501 129.943 46.82 129.292 45.9541 128.919C46.3768 129.761 47.0158 130.492 47.0284 131.475C47.041 132.456 46.3875 133.186 46.021 134.051C46.8481 133.629 47.5705 133.003 48.5362 132.979C49.5282 132.954 50.2709 133.591 51.13 133.985C50.7344 133.142 50.0954 132.428 50.076 131.457C50.0566 130.468 50.7024 129.735 51.0825 128.868C50.2418 129.274 49.5175 129.917 48.5382 129.93H48.5372Z" fill="white"/>
<path d="M24.0771 76.1103C23.248 76.5602 22.548 77.2418 21.5618 77.302C20.567 77.3621 19.8 76.7396 18.9099 76.4051C19.3753 77.2331 20.0541 77.9409 20.1142 78.9318C20.1733 79.9208 19.5489 80.6868 19.2202 81.5779C20.0347 81.1125 20.7338 80.4473 21.7054 80.3775C22.7041 80.3058 23.4837 80.9127 24.368 81.2695C23.9297 80.4376 23.251 79.7482 23.185 78.7699C23.1181 77.7742 23.7358 77.0043 24.0771 76.1123V76.1103Z" fill="white"/>
<path d="M41.8457 108.932V103.866C44.0991 102.565 46.3206 101.01 48.193 99.4863C49.1771 99.5183 49.8113 98.7562 49.7793 97.868C49.7153 96.2498 47.7479 95.7737 46.9547 96.8529H30.3254C29.9444 96.8529 29.6593 97.265 29.6593 97.646C29.6593 98.0271 29.9444 98.3441 30.3254 98.3441H45.8125L41.4966 102.882C40.7665 102.216 39.4972 102.723 39.4972 103.739V108.944H27.1518C26.7707 108.944 26.4537 109.325 26.4537 109.705C26.4537 110.085 26.7707 110.466 27.1518 110.466H39.4972V121.161H37.1808C36.8637 121.161 36.6417 121.447 36.6417 121.764C36.6417 122.081 36.8637 122.335 37.1808 122.335H39.0212C38.5771 123.287 39.2752 124.366 40.3544 124.366C41.2116 124.366 41.8777 123.7 41.8777 122.843V110.469C59.5242 110.498 57.1708 103.203 57.1708 103.203C52.757 109.098 43.5891 109.007 41.8467 108.933L41.8457 108.932Z" fill="white"/>
</svg>
